<svg viewBox="0 0 96 96"><defs><path id="instagram_svg__a" d="M48 0C35 0 33.3.1 28.2.3c-5.1.2-8.6 1-11.7 2.2C13.3 3.7 10.7 5.4 8 8c-2.7 2.7-4.3 5.3-5.5 8.5C1.3 19.6.5 23 .3 28.2.1 33.3 0 35 0 48s.1 14.7.3 19.8c.2 5.1 1 8.6 2.2 11.7C3.7 82.7 5.4 85.3 8 88c2.7 2.7 5.3 4.3 8.5 5.5 3.1 1.2 6.5 2 11.7 2.2 5.1.2 6.8.3 19.8.3s14.7-.1 19.8-.3c5.1-.2 8.6-1 11.7-2.2 3.2-1.2 5.8-2.9 8.5-5.5 2.7-2.7 4.3-5.3 5.5-8.5 1.2-3.1 2-6.5 2.2-11.7.2-5.1.3-6.8.3-19.8s-.1-14.7-.3-19.8c-.2-5.1-1.1-8.6-2.2-11.7-1.2-3.2-2.9-5.8-5.5-8.5-2.7-2.7-5.3-4.3-8.5-5.5-3.1-1.2-6.6-2-11.7-2.2C62.7.1 61 0 48 0zm-4.3 8.7H48c12.8 0 14.3 0 19.4.3 4.7.2 7.2 1 8.9 1.7 2.2.9 3.8 1.9 5.5 3.6 1.7 1.7 2.7 3.3 3.6 5.5.7 1.7 1.4 4.2 1.7 8.9.2 5.1.3 6.6.3 19.4s-.1 14.3-.3 19.4c-.2 4.7-1 7.2-1.7 8.9-.9 2.2-1.9 3.8-3.6 5.5-1.7 1.7-3.3 2.7-5.5 3.6-1.7.7-4.2 1.4-8.9 1.7-5.1.2-6.6.3-19.4.3-12.8 0-14.3-.1-19.4-.3-4.7-.2-7.2-1-8.9-1.7-2.2-.9-3.8-1.9-5.5-3.6-1.7-1.7-2.7-3.3-3.6-5.5-.7-1.7-1.4-4.2-1.7-8.9-.2-5.2-.2-6.7-.2-19.5s0-14.3.3-19.4c.2-4.7 1-7.2 1.7-8.9.9-2.2 1.9-3.8 3.6-5.5 1.7-1.7 3.3-2.7 5.5-3.6 1.7-.7 4.2-1.4 8.9-1.7 4.3-.2 6.1-.3 15-.2zm29.9 7.9c-3.2 0-5.8 2.6-5.8 5.8 0 3.2 2.6 5.8 5.8 5.8s5.8-2.6 5.8-5.8-2.6-5.8-5.8-5.8zM48 23.4c-13.6 0-24.7 11-24.7 24.6s11 24.6 24.7 24.6c13.6 0 24.6-11 24.6-24.6S61.6 23.4 48 23.4zm0 8.6c8.8 0 16 7.2 16 16s-7.2 16-16 16-16-7.2-16-16 7.2-16 16-16z"></path></defs><clipPath id="instagram_svg__b"><use xlink:href="#instagram_svg__a" overflow="visible"></use></clipPath><g clip-path="url(#instagram_svg__b)"><radialGradient id="instagram_svg__c" cx="-991.221" cy="-473.388" r="65" gradientTransform="matrix(0 -1.982 -1.8439 0 -855.34 -1841.58)" gradientUnits="userSpaceOnUse"><stop offset="0" stop-color="#fd5"></stop><stop offset="0.1" stop-color="#fd5"></stop><stop offset="0.5" stop-color="#ff543e"></stop><stop offset="1" stop-color="#c837ab"></stop></radialGradient><path d="M48-17c-27.1 0-35.1 0-36.6.2-5.6.5-9 1.3-12.8 3.2-2.9 1.4-5.2 3.1-7.5 5.5-4.1 4.3-6.6 9.5-7.5 15.8-.4 3-.6 3.7-.6 19.2V48c0 27.1 0 35 .2 36.6.4 5.4 1.3 8.8 3.1 12.6 3.4 7.1 10 12.5 17.8 14.5 2.7.7 5.6 1.1 9.4 1.2 1.6.1 18 .1 34.4.1s32.8 0 34.4-.1c4.4-.2 7-.6 9.8-1.3 7.8-2 14.2-7.3 17.8-14.5 1.8-3.6 2.7-7.2 3.1-12.3.1-1.1.1-19 .1-36.8 0-17.8 0-35.7-.1-36.8-.4-5.2-1.3-8.7-3.1-12.4-1.5-3-3.2-5.3-5.6-7.6-4.3-4.1-9.6-6.6-15.8-7.5-3-.4-3.6-.6-19.2-.6H48z" fill="url(#instagram_svg__c)"></path><radialGradient id="instagram_svg__d" cx="-41.922" cy="329.829" r="65" gradientTransform="matrix(.1739 .8687 3.5818 -.7172 -1212.869 265.33)" gradientUnits="userSpaceOnUse"><stop offset="0" stop-color="#3771c8"></stop><stop offset="0.128" stop-color="#3771c8"></stop><stop offset="1" stop-color="#60f" stop-opacity="0"></stop></radialGradient><path d="M48-17c-27.1 0-35.1 0-36.6.2-5.6.5-9 1.3-12.8 3.2-2.9 1.4-5.2 3.1-7.5 5.5-4.1 4.3-6.6 9.5-7.5 15.8-.4 3-.6 3.7-.6 19.2V48c0 27.1 0 35 .2 36.6.4 5.4 1.3 8.8 3.1 12.6 3.4 7.1 10 12.5 17.8 14.5 2.7.7 5.6 1.1 9.4 1.2 1.6.1 18 .1 34.4.1s32.8 0 34.4-.1c4.4-.2 7-.6 9.8-1.3 7.8-2 14.2-7.3 17.8-14.5 1.8-3.6 2.7-7.2 3.1-12.3.1-1.1.1-19 .1-36.8 0-17.8 0-35.7-.1-36.8-.4-5.2-1.3-8.7-3.1-12.4-1.5-3-3.2-5.3-5.6-7.6-4.3-4.1-9.6-6.6-15.8-7.5-3-.4-3.6-.6-19.2-.6H48z" fill="url(#instagram_svg__d)"></path></g></svg>