<?xml version="1.0" encoding="UTF-8" standalone="no"?>
<svg
   xmlns:dc="http://purl.org/dc/elements/1.1/"
   xmlns:cc="http://creativecommons.org/ns#"
   xmlns:rdf="http://www.w3.org/1999/02/22-rdf-syntax-ns#"
   xmlns:svg="http://www.w3.org/2000/svg"
   xmlns="http://www.w3.org/2000/svg"
   enable-background="new 0 0 124 124"
   viewBox="0 0 115 100"
   version="1.1"
   id="svg837">
  <metadata
     id="metadata843">
    <rdf:RDF>
      <cc:Work
         rdf:about="">
        <dc:format>image/svg+xml</dc:format>
        <dc:type
           rdf:resource="http://purl.org/dc/dcmitype/StillImage" />
        <dc:title></dc:title>
      </cc:Work>
    </rdf:RDF>
  </metadata>
  <defs
     id="defs841" />
  <path
     fill="#333033"
     d="m 114.59888,12.156233 c -3.61012,1.767002 -7.73596,2.854387 -11.60394,3.534003 1.93399,-0.271847 4.64158,-3.941772 5.80198,-5.301004 1.67612,-2.1747711 3.09437,-4.7573113 3.86797,-7.4757747 0.12893,-0.2718464 0.12893,-0.5436927 0,-0.6796159 -0.25787,-0.1359233 -0.3868,0 -0.64466,0 -4.38371,2.4466171 -8.89635,4.3495415 -13.795788,5.57285 -0.386796,0.1359232 -0.64466,0 -0.902525,-0.2718463 C 96.935119,6.9911524 96.548322,6.5833829 96.161525,6.1756134 94.098606,4.4086121 91.906754,2.9134573 89.457037,1.8260718 86.233727,0.46684017 82.623619,-0.2127757 79.14243,0.05907065 75.790187,0.330917 72.437943,1.2823792 69.472497,2.9134573 c -2.965446,1.631078 -5.673028,3.9417719 -7.864881,6.7961585 -2.191853,2.8543872 -3.867976,6.2524662 -4.641571,9.9223912 -0.773594,3.534003 -0.773594,6.932083 -0.257864,10.466086 0.128932,0.543692 0,0.679615 -0.51573,0.543692 C 37.11044,27.787398 21.380675,20.719393 8.6163571,5.3600743 8.100626,4.6804585 7.7138287,4.6804585 7.3270314,5.3600743 1.7829328,14.195081 4.4905153,28.331091 11.452872,35.399096 c 0.902527,0.951462 1.933988,1.902925 2.965448,2.718463 -0.386798,0.135924 -5.0283683,-0.407769 -9.1542089,-2.718463 -0.5157297,-0.40777 -0.7735958,-0.135923 -0.9025283,0.543693 0,0.951462 0,1.767001 0.1289325,2.854386 1.0314607,8.97093 6.9623567,17.262243 14.9561727,20.388476 0.902526,0.40777 2.062919,0.815539 3.094379,0.951462 -1.805055,0.40777 -3.739042,0.679616 -9.025274,0.271847 -0.644664,-0.135923 -0.902529,0.271847 -0.644664,0.815539 3.867976,11.417546 12.37752,14.815626 18.824146,16.71855 0.902528,0.135923 1.676122,0.135923 2.57865,0.40777 0,0.135923 -0.128932,0.135923 -0.128932,0.135923 -2.062921,3.39808 -9.412073,5.980619 -12.89325,7.203928 -6.188761,2.310694 -13.0221845,3.262156 -19.5977426,2.582541 -1.03145953,-0.135924 -1.2893244,-0.135924 -1.54718927,0 -0.25786488,0.135922 0,0.407769 0.25786487,0.679615 1.2893244,0.951462 2.7075825,1.767001 4.1258393,2.58254 4.1258418,2.310694 8.5095467,4.213618 13.0221837,5.57285 23.465715,6.796164 50.025812,1.767002 67.689568,-16.71855 13.795774,-14.407856 18.695203,-34.388562 18.695203,-54.505192 0,-0.81554 0.90253,-1.223308 1.41827,-1.631078 3.6101,-2.854387 6.44662,-6.252466 9.1542,-10.058315 0.64466,-0.81554 0.51574,-1.631078 0.51574,-1.902925 0,0 0,-0.135923 0,-0.135923 0,-0.271847 0.12892,-0.271847 -0.3868,0 z"
     id="path833"
     style="stroke-width:1.32382" />
  <path
     fill="#333033"
     fill-rule="evenodd"
     d="m 43.9,101 c 7.5,0 0.3,0 0,0 1,0 -0.1,0 0,0 z m 0,0 c -0.1,0 -1.5,0 0,0 0,0 -0.3,0 0,0 z m 3,0.1 c 0,-0.2 1.6,0 0,0 0,-0.1 0.2,0 0,0 z M 78.5,27.9 c -0.1,0.1 -0.2,0.1 -0.4,0 0.1,0 0.3,0 0.4,0 z"
     clip-rule="evenodd"
     id="path835" />
</svg>
